<?xml version="1.0" encoding="UTF-8"?>
<svg width="753px" height="753px" viewBox="0 0 753 753" version="1.1" xmlns="http://www.w3.org/2000/svg" xmlns:xlink="http://www.w3.org/1999/xlink">
    <!-- Generator: Sketch 56.3 (81716) - https://sketch.com -->
    <title>Combined Shape</title>
    <desc>Created with Sketch.</desc>
    <g id="Mobile01_v.0.2" stroke="none" stroke-width="1" fill="none" fill-rule="evenodd">
        <g id="Artboard" transform="translate(-54.000000, -33.000000)" fill="#f6f7f8" fill-rule="nonzero">
            <path d="M534.561604,47.5425974 C718.60338,100.656707 833.532831,283.335957 801.725695,472.19733 C801.767039,472.53931 801.767039,472.885024 801.725695,473.227004 C800.967201,475.945062 799.151631,478.246237 796.684418,479.616658 C794.217204,480.987078 791.303845,481.312599 788.594919,480.520528 C787.191572,480.078096 785.882206,479.379897 784.732926,478.46118 L666.727585,388.707927 C656.569985,275.574244 567.742026,185.452746 454.748236,173.641672 C341.754446,161.830598 236.203582,231.633963 202.861289,340.220666 C169.518995,448.807369 217.712408,565.801485 317.870216,619.415831 C418.028024,673.030176 542.132194,648.266734 614.032837,560.320266 L766.62447,541.786133 C767.957305,541.535219 769.325272,541.535219 770.658107,541.786133 C776.244735,543.405342 779.468567,549.237862 777.86716,554.828671 L777.86716,555.51512 C735.550316,655.848833 651.904756,732.984756 548.466213,767.063153 C445.027671,801.141551 331.903096,788.832632 238.218011,733.305503 L79.3613678,776.208588 C78.3988484,776.557992 77.3815549,776.732353 76.3575955,776.723425 C70.5276147,776.723425 65.8014815,771.998167 65.8014815,766.169266 C65.7821485,765.116728 65.9566991,764.069619 66.3164138,763.080244 L108.626692,605.282698 C28.2179319,472.702077 37.2328868,304.412502 131.345224,181.177183 C225.457561,57.9418646 385.458106,4.91424088 534.561604,47.5425974 Z" id="Combined-Shape"></path>
        </g>
    </g>
</svg>